<mxfile host="app.diagrams.net" modified="2021-10-30T10:55:27.266Z" agent="5.0 (Windows NT 10.0; Win64; x64) AppleWebKit/537.36 (KHTML, like Gecko) Chrome/95.0.4638.54 Safari/537.36" etag="DsyWlZyCi0zuRJJNX5l6" version="15.5.8" type="github">
  <diagram id="f0gYBg6eV_TWnXE1XEZ3" name="Page-1">
    <mxGraphModel dx="1422" dy="762" grid="1" gridSize="10" guides="1" tooltips="1" connect="1" arrows="1" fold="1" page="1" pageScale="1" pageWidth="1169" pageHeight="827" math="0" shadow="0">
      <root>
        <mxCell id="0" />
        <mxCell id="1" parent="0" />
        <mxCell id="re59bVa50K-5OiU--Nzr-1" value="&lt;font style=&quot;font-size: 24px&quot;&gt;SU Interactive and Third Party&lt;/font&gt;" style="text;html=1;strokeColor=none;fillColor=none;align=center;verticalAlign=middle;whiteSpace=wrap;rounded=0;" parent="1" vertex="1">
          <mxGeometry x="415" y="40" width="340" height="30" as="geometry" />
        </mxCell>
        <mxCell id="re59bVa50K-5OiU--Nzr-49" style="edgeStyle=orthogonalEdgeStyle;rounded=0;orthogonalLoop=1;jettySize=auto;html=1;exitX=1;exitY=0.5;exitDx=0;exitDy=0;entryX=0;entryY=0.5;entryDx=0;entryDy=0;fontSize=12;endArrow=none;endFill=0;" parent="1" source="re59bVa50K-5OiU--Nzr-2" target="re59bVa50K-5OiU--Nzr-14" edge="1">
          <mxGeometry relative="1" as="geometry" />
        </mxCell>
        <mxCell id="re59bVa50K-5OiU--Nzr-2" value="" style="rounded=1;whiteSpace=wrap;html=1;fontSize=24;" parent="1" vertex="1">
          <mxGeometry x="260" y="100" width="120" height="60" as="geometry" />
        </mxCell>
        <mxCell id="re59bVa50K-5OiU--Nzr-12" value="" style="endArrow=none;html=1;rounded=0;fontSize=24;exitX=0;exitY=0.5;exitDx=0;exitDy=0;entryX=1;entryY=0.5;entryDx=0;entryDy=0;" parent="1" source="re59bVa50K-5OiU--Nzr-2" target="re59bVa50K-5OiU--Nzr-2" edge="1">
          <mxGeometry width="50" height="50" relative="1" as="geometry">
            <mxPoint x="295" y="140" as="sourcePoint" />
            <mxPoint x="345" y="90" as="targetPoint" />
          </mxGeometry>
        </mxCell>
        <mxCell id="re59bVa50K-5OiU--Nzr-50" style="edgeStyle=orthogonalEdgeStyle;rounded=0;orthogonalLoop=1;jettySize=auto;html=1;exitX=1;exitY=0.5;exitDx=0;exitDy=0;fontSize=12;endArrow=none;endFill=0;" parent="1" source="re59bVa50K-5OiU--Nzr-14" edge="1">
          <mxGeometry relative="1" as="geometry">
            <mxPoint x="800" y="129.8620689655172" as="targetPoint" />
          </mxGeometry>
        </mxCell>
        <mxCell id="re59bVa50K-5OiU--Nzr-51" style="edgeStyle=orthogonalEdgeStyle;rounded=0;orthogonalLoop=1;jettySize=auto;html=1;exitX=0.5;exitY=1;exitDx=0;exitDy=0;fontSize=12;endArrow=none;endFill=0;" parent="1" source="re59bVa50K-5OiU--Nzr-14" target="re59bVa50K-5OiU--Nzr-28" edge="1">
          <mxGeometry relative="1" as="geometry" />
        </mxCell>
        <mxCell id="re59bVa50K-5OiU--Nzr-14" value="" style="rounded=1;whiteSpace=wrap;html=1;fontSize=24;" parent="1" vertex="1">
          <mxGeometry x="525" y="100" width="120" height="60" as="geometry" />
        </mxCell>
        <mxCell id="re59bVa50K-5OiU--Nzr-15" value="" style="endArrow=none;html=1;rounded=0;fontSize=24;exitX=0;exitY=0.5;exitDx=0;exitDy=0;entryX=1;entryY=0.5;entryDx=0;entryDy=0;" parent="1" source="re59bVa50K-5OiU--Nzr-14" target="re59bVa50K-5OiU--Nzr-14" edge="1">
          <mxGeometry width="50" height="50" relative="1" as="geometry">
            <mxPoint x="560" y="140" as="sourcePoint" />
            <mxPoint x="610" y="90" as="targetPoint" />
          </mxGeometry>
        </mxCell>
        <mxCell id="re59bVa50K-5OiU--Nzr-16" value="" style="rounded=1;whiteSpace=wrap;html=1;fontSize=24;" parent="1" vertex="1">
          <mxGeometry x="800" y="100" width="120" height="60" as="geometry" />
        </mxCell>
        <mxCell id="re59bVa50K-5OiU--Nzr-17" value="" style="endArrow=none;html=1;rounded=0;fontSize=24;exitX=0;exitY=0.5;exitDx=0;exitDy=0;entryX=1;entryY=0.5;entryDx=0;entryDy=0;" parent="1" source="re59bVa50K-5OiU--Nzr-16" target="re59bVa50K-5OiU--Nzr-16" edge="1">
          <mxGeometry width="50" height="50" relative="1" as="geometry">
            <mxPoint x="835" y="140" as="sourcePoint" />
            <mxPoint x="885" y="90" as="targetPoint" />
          </mxGeometry>
        </mxCell>
        <mxCell id="re59bVa50K-5OiU--Nzr-18" value="&lt;font style=&quot;font-size: 12px&quot;&gt;&amp;lt;&amp;lt;Agent&amp;gt;&amp;gt;&lt;br&gt;&lt;/font&gt;" style="text;html=1;strokeColor=none;fillColor=none;align=center;verticalAlign=middle;whiteSpace=wrap;rounded=0;fontSize=24;" parent="1" vertex="1">
          <mxGeometry x="287.5" y="100" width="65" height="10" as="geometry" />
        </mxCell>
        <mxCell id="re59bVa50K-5OiU--Nzr-19" value="Third Party" style="text;html=1;strokeColor=none;fillColor=none;align=center;verticalAlign=middle;whiteSpace=wrap;rounded=0;fontSize=12;" parent="1" vertex="1">
          <mxGeometry x="285" y="116" width="70" height="10" as="geometry" />
        </mxCell>
        <mxCell id="re59bVa50K-5OiU--Nzr-20" value="Authorisation" style="text;html=1;strokeColor=none;fillColor=none;align=center;verticalAlign=middle;whiteSpace=wrap;rounded=0;fontSize=12;" parent="1" vertex="1">
          <mxGeometry x="554.5" y="116" width="60" height="10" as="geometry" />
        </mxCell>
        <mxCell id="re59bVa50K-5OiU--Nzr-21" value="&lt;font style=&quot;font-size: 12px&quot;&gt;&amp;lt;&amp;lt;Contract&amp;gt;&amp;gt;&lt;br&gt;&lt;/font&gt;" style="text;html=1;strokeColor=none;fillColor=none;align=center;verticalAlign=middle;whiteSpace=wrap;rounded=0;fontSize=24;" parent="1" vertex="1">
          <mxGeometry x="552" y="100" width="65" height="10" as="geometry" />
        </mxCell>
        <mxCell id="re59bVa50K-5OiU--Nzr-22" value="SU Interactive" style="text;html=1;strokeColor=none;fillColor=none;align=center;verticalAlign=middle;whiteSpace=wrap;rounded=0;fontSize=12;" parent="1" vertex="1">
          <mxGeometry x="820" y="116" width="80" height="10" as="geometry" />
        </mxCell>
        <mxCell id="re59bVa50K-5OiU--Nzr-23" value="&lt;font style=&quot;font-size: 12px&quot;&gt;&amp;lt;&amp;lt;Agent&amp;gt;&amp;gt;&lt;br&gt;&lt;/font&gt;" style="text;html=1;strokeColor=none;fillColor=none;align=center;verticalAlign=middle;whiteSpace=wrap;rounded=0;fontSize=24;" parent="1" vertex="1">
          <mxGeometry x="827.5" y="100" width="65" height="10" as="geometry" />
        </mxCell>
        <mxCell id="re59bVa50K-5OiU--Nzr-54" style="edgeStyle=orthogonalEdgeStyle;rounded=0;orthogonalLoop=1;jettySize=auto;html=1;exitX=0.5;exitY=1;exitDx=0;exitDy=0;entryX=0.5;entryY=0;entryDx=0;entryDy=0;fontSize=12;endArrow=none;endFill=0;" parent="1" source="re59bVa50K-5OiU--Nzr-24" target="re59bVa50K-5OiU--Nzr-32" edge="1">
          <mxGeometry relative="1" as="geometry" />
        </mxCell>
        <mxCell id="re59bVa50K-5OiU--Nzr-24" value="" style="rounded=1;whiteSpace=wrap;html=1;fontSize=24;" parent="1" vertex="1">
          <mxGeometry x="392" y="300" width="120" height="60" as="geometry" />
        </mxCell>
        <mxCell id="re59bVa50K-5OiU--Nzr-25" value="" style="endArrow=none;html=1;rounded=0;fontSize=24;exitX=0;exitY=0.5;exitDx=0;exitDy=0;entryX=1;entryY=0.5;entryDx=0;entryDy=0;" parent="1" source="re59bVa50K-5OiU--Nzr-24" target="re59bVa50K-5OiU--Nzr-24" edge="1">
          <mxGeometry width="50" height="50" relative="1" as="geometry">
            <mxPoint x="427" y="340" as="sourcePoint" />
            <mxPoint x="477" y="290" as="targetPoint" />
          </mxGeometry>
        </mxCell>
        <mxCell id="re59bVa50K-5OiU--Nzr-55" style="edgeStyle=orthogonalEdgeStyle;rounded=0;orthogonalLoop=1;jettySize=auto;html=1;exitX=0.5;exitY=1;exitDx=0;exitDy=0;entryX=0.5;entryY=0;entryDx=0;entryDy=0;fontSize=12;endArrow=none;endFill=0;" parent="1" source="re59bVa50K-5OiU--Nzr-26" target="re59bVa50K-5OiU--Nzr-34" edge="1">
          <mxGeometry relative="1" as="geometry" />
        </mxCell>
        <mxCell id="re59bVa50K-5OiU--Nzr-26" value="" style="rounded=1;whiteSpace=wrap;html=1;fontSize=24;" parent="1" vertex="1">
          <mxGeometry x="658" y="300" width="120" height="60" as="geometry" />
        </mxCell>
        <mxCell id="re59bVa50K-5OiU--Nzr-27" value="" style="endArrow=none;html=1;rounded=0;fontSize=24;exitX=0;exitY=0.5;exitDx=0;exitDy=0;entryX=1;entryY=0.5;entryDx=0;entryDy=0;" parent="1" source="re59bVa50K-5OiU--Nzr-26" target="re59bVa50K-5OiU--Nzr-26" edge="1">
          <mxGeometry width="50" height="50" relative="1" as="geometry">
            <mxPoint x="692" y="340" as="sourcePoint" />
            <mxPoint x="742" y="290" as="targetPoint" />
          </mxGeometry>
        </mxCell>
        <mxCell id="re59bVa50K-5OiU--Nzr-28" value="&lt;font style=&quot;font-size: 12px&quot;&gt;&amp;lt;&amp;lt;Commitment&amp;gt;&amp;gt;&lt;br&gt;&lt;/font&gt;" style="text;html=1;strokeColor=none;fillColor=none;align=center;verticalAlign=middle;whiteSpace=wrap;rounded=0;fontSize=24;" parent="1" vertex="1">
          <mxGeometry x="419.5" y="300" width="65" height="10" as="geometry" />
        </mxCell>
        <mxCell id="re59bVa50K-5OiU--Nzr-29" value="Authorisation Oderline" style="text;html=1;strokeColor=none;fillColor=none;align=center;verticalAlign=middle;whiteSpace=wrap;rounded=0;fontSize=12;" parent="1" vertex="1">
          <mxGeometry x="382" y="316" width="140" height="10" as="geometry" />
        </mxCell>
        <mxCell id="re59bVa50K-5OiU--Nzr-30" value="Commission Oderline" style="text;html=1;strokeColor=none;fillColor=none;align=center;verticalAlign=middle;whiteSpace=wrap;rounded=0;fontSize=12;" parent="1" vertex="1">
          <mxGeometry x="660" y="316" width="120" height="10" as="geometry" />
        </mxCell>
        <mxCell id="re59bVa50K-5OiU--Nzr-52" style="edgeStyle=orthogonalEdgeStyle;rounded=0;orthogonalLoop=1;jettySize=auto;html=1;exitX=0.5;exitY=0;exitDx=0;exitDy=0;fontSize=12;endArrow=none;endFill=0;" parent="1" source="re59bVa50K-5OiU--Nzr-31" edge="1">
          <mxGeometry relative="1" as="geometry">
            <mxPoint x="590" y="160" as="targetPoint" />
          </mxGeometry>
        </mxCell>
        <mxCell id="re59bVa50K-5OiU--Nzr-31" value="&lt;font style=&quot;font-size: 12px&quot;&gt;&amp;lt;&amp;lt;Commitment&amp;gt;&amp;gt;&lt;br&gt;&lt;/font&gt;" style="text;html=1;strokeColor=none;fillColor=none;align=center;verticalAlign=middle;whiteSpace=wrap;rounded=0;fontSize=24;" parent="1" vertex="1">
          <mxGeometry x="684" y="300" width="65" height="10" as="geometry" />
        </mxCell>
        <mxCell id="re59bVa50K-5OiU--Nzr-64" style="edgeStyle=orthogonalEdgeStyle;rounded=0;orthogonalLoop=1;jettySize=auto;html=1;exitX=0.5;exitY=1;exitDx=0;exitDy=0;entryX=0.5;entryY=0;entryDx=0;entryDy=0;fontSize=12;endArrow=none;endFill=0;" parent="1" source="re59bVa50K-5OiU--Nzr-32" target="re59bVa50K-5OiU--Nzr-63" edge="1">
          <mxGeometry relative="1" as="geometry" />
        </mxCell>
        <mxCell id="re59bVa50K-5OiU--Nzr-32" value="" style="rounded=1;whiteSpace=wrap;html=1;fontSize=24;" parent="1" vertex="1">
          <mxGeometry x="392" y="460" width="120" height="60" as="geometry" />
        </mxCell>
        <mxCell id="re59bVa50K-5OiU--Nzr-33" value="" style="endArrow=none;html=1;rounded=0;fontSize=24;exitX=0;exitY=0.5;exitDx=0;exitDy=0;entryX=1;entryY=0.5;entryDx=0;entryDy=0;" parent="1" source="re59bVa50K-5OiU--Nzr-32" target="re59bVa50K-5OiU--Nzr-32" edge="1">
          <mxGeometry width="50" height="50" relative="1" as="geometry">
            <mxPoint x="426" y="500" as="sourcePoint" />
            <mxPoint x="476" y="450" as="targetPoint" />
          </mxGeometry>
        </mxCell>
        <mxCell id="re59bVa50K-5OiU--Nzr-65" style="edgeStyle=orthogonalEdgeStyle;rounded=0;orthogonalLoop=1;jettySize=auto;html=1;exitX=1;exitY=0.5;exitDx=0;exitDy=0;entryX=0.5;entryY=1;entryDx=0;entryDy=0;fontSize=12;endArrow=none;endFill=0;" parent="1" source="re59bVa50K-5OiU--Nzr-34" target="re59bVa50K-5OiU--Nzr-56" edge="1">
          <mxGeometry relative="1" as="geometry" />
        </mxCell>
        <mxCell id="re59bVa50K-5OiU--Nzr-34" value="" style="rounded=1;whiteSpace=wrap;html=1;fontSize=24;" parent="1" vertex="1">
          <mxGeometry x="658" y="460" width="120" height="60" as="geometry" />
        </mxCell>
        <mxCell id="re59bVa50K-5OiU--Nzr-35" value="" style="endArrow=none;html=1;rounded=0;fontSize=24;exitX=0;exitY=0.5;exitDx=0;exitDy=0;entryX=1;entryY=0.5;entryDx=0;entryDy=0;" parent="1" source="re59bVa50K-5OiU--Nzr-34" target="re59bVa50K-5OiU--Nzr-34" edge="1">
          <mxGeometry width="50" height="50" relative="1" as="geometry">
            <mxPoint x="689" y="500" as="sourcePoint" />
            <mxPoint x="739" y="450" as="targetPoint" />
          </mxGeometry>
        </mxCell>
        <mxCell id="re59bVa50K-5OiU--Nzr-36" value="&lt;font style=&quot;font-size: 12px&quot;&gt;&amp;lt;&amp;lt;Event&amp;gt;&amp;gt;&lt;br&gt;&lt;/font&gt;" style="text;html=1;strokeColor=none;fillColor=none;align=center;verticalAlign=middle;whiteSpace=wrap;rounded=0;fontSize=24;" parent="1" vertex="1">
          <mxGeometry x="418.5" y="460" width="65" height="10" as="geometry" />
        </mxCell>
        <mxCell id="re59bVa50K-5OiU--Nzr-37" value="Authorisation Oder" style="text;html=1;strokeColor=none;fillColor=none;align=center;verticalAlign=middle;whiteSpace=wrap;rounded=0;fontSize=12;" parent="1" vertex="1">
          <mxGeometry x="399" y="476" width="110" height="10" as="geometry" />
        </mxCell>
        <mxCell id="re59bVa50K-5OiU--Nzr-38" value="Commission" style="text;html=1;strokeColor=none;fillColor=none;align=center;verticalAlign=middle;whiteSpace=wrap;rounded=0;fontSize=12;" parent="1" vertex="1">
          <mxGeometry x="653.5" y="476" width="120" height="10" as="geometry" />
        </mxCell>
        <mxCell id="re59bVa50K-5OiU--Nzr-39" value="&lt;font style=&quot;font-size: 12px&quot;&gt;&amp;lt;&amp;lt;Event&amp;gt;&amp;gt;&lt;br&gt;&lt;/font&gt;" style="text;html=1;strokeColor=none;fillColor=none;align=center;verticalAlign=middle;whiteSpace=wrap;rounded=0;fontSize=24;" parent="1" vertex="1">
          <mxGeometry x="681" y="460" width="65" height="10" as="geometry" />
        </mxCell>
        <mxCell id="re59bVa50K-5OiU--Nzr-45" style="edgeStyle=orthogonalEdgeStyle;rounded=0;orthogonalLoop=1;jettySize=auto;html=1;exitX=1;exitY=0.5;exitDx=0;exitDy=0;fontSize=12;endArrow=none;endFill=0;" parent="1" source="re59bVa50K-5OiU--Nzr-40" edge="1">
          <mxGeometry relative="1" as="geometry">
            <mxPoint x="660" y="491" as="targetPoint" />
          </mxGeometry>
        </mxCell>
        <mxCell id="re59bVa50K-5OiU--Nzr-46" style="edgeStyle=orthogonalEdgeStyle;rounded=0;orthogonalLoop=1;jettySize=auto;html=1;exitX=0;exitY=0.5;exitDx=0;exitDy=0;fontSize=12;endArrow=none;endFill=0;" parent="1" source="re59bVa50K-5OiU--Nzr-40" edge="1">
          <mxGeometry relative="1" as="geometry">
            <mxPoint x="510" y="491" as="targetPoint" />
          </mxGeometry>
        </mxCell>
        <mxCell id="re59bVa50K-5OiU--Nzr-40" value="" style="rhombus;whiteSpace=wrap;html=1;fontSize=12;" parent="1" vertex="1">
          <mxGeometry x="570" y="476" width="30" height="30" as="geometry" />
        </mxCell>
        <mxCell id="re59bVa50K-5OiU--Nzr-43" style="edgeStyle=orthogonalEdgeStyle;rounded=0;orthogonalLoop=1;jettySize=auto;html=1;exitX=0;exitY=0.5;exitDx=0;exitDy=0;entryX=1.019;entryY=0.422;entryDx=0;entryDy=0;entryPerimeter=0;fontSize=12;endArrow=none;endFill=0;" parent="1" source="re59bVa50K-5OiU--Nzr-41" edge="1">
          <mxGeometry relative="1" as="geometry">
            <mxPoint x="514.28" y="330.32000000000005" as="targetPoint" />
          </mxGeometry>
        </mxCell>
        <mxCell id="re59bVa50K-5OiU--Nzr-44" style="edgeStyle=orthogonalEdgeStyle;rounded=0;orthogonalLoop=1;jettySize=auto;html=1;exitX=1;exitY=0.5;exitDx=0;exitDy=0;entryX=-0.008;entryY=0.417;entryDx=0;entryDy=0;entryPerimeter=0;fontSize=12;endArrow=none;endFill=0;" parent="1" source="re59bVa50K-5OiU--Nzr-41" edge="1">
          <mxGeometry relative="1" as="geometry">
            <mxPoint x="656.0400000000002" y="330.0200000000001" as="targetPoint" />
          </mxGeometry>
        </mxCell>
        <mxCell id="re59bVa50K-5OiU--Nzr-41" value="" style="rhombus;whiteSpace=wrap;html=1;fontSize=12;" parent="1" vertex="1">
          <mxGeometry x="570" y="315" width="30" height="30" as="geometry" />
        </mxCell>
        <mxCell id="re59bVa50K-5OiU--Nzr-47" value="Duality" style="text;html=1;strokeColor=none;fillColor=none;align=center;verticalAlign=middle;whiteSpace=wrap;rounded=0;fontSize=12;" parent="1" vertex="1">
          <mxGeometry x="555" y="450" width="60" height="30" as="geometry" />
        </mxCell>
        <mxCell id="re59bVa50K-5OiU--Nzr-48" value="Reciprocity" style="text;html=1;strokeColor=none;fillColor=none;align=center;verticalAlign=middle;whiteSpace=wrap;rounded=0;fontSize=12;" parent="1" vertex="1">
          <mxGeometry x="555" y="345" width="60" height="30" as="geometry" />
        </mxCell>
        <mxCell id="re59bVa50K-5OiU--Nzr-56" value="" style="rounded=1;whiteSpace=wrap;html=1;fontSize=24;" parent="1" vertex="1">
          <mxGeometry x="880" y="375" width="120" height="60" as="geometry" />
        </mxCell>
        <mxCell id="re59bVa50K-5OiU--Nzr-57" value="" style="endArrow=none;html=1;rounded=0;fontSize=24;exitX=0;exitY=0.5;exitDx=0;exitDy=0;entryX=1;entryY=0.5;entryDx=0;entryDy=0;" parent="1" source="re59bVa50K-5OiU--Nzr-56" target="re59bVa50K-5OiU--Nzr-56" edge="1">
          <mxGeometry width="50" height="50" relative="1" as="geometry">
            <mxPoint x="915" y="415" as="sourcePoint" />
            <mxPoint x="965" y="365" as="targetPoint" />
          </mxGeometry>
        </mxCell>
        <mxCell id="re59bVa50K-5OiU--Nzr-58" value="Money" style="text;html=1;strokeColor=none;fillColor=none;align=center;verticalAlign=middle;whiteSpace=wrap;rounded=0;fontSize=12;" parent="1" vertex="1">
          <mxGeometry x="900" y="391" width="80" height="10" as="geometry" />
        </mxCell>
        <mxCell id="re59bVa50K-5OiU--Nzr-66" style="edgeStyle=orthogonalEdgeStyle;rounded=0;orthogonalLoop=1;jettySize=auto;html=1;exitX=0.5;exitY=0;exitDx=0;exitDy=0;entryX=1;entryY=0.5;entryDx=0;entryDy=0;fontSize=12;endArrow=none;endFill=0;" parent="1" source="re59bVa50K-5OiU--Nzr-59" target="re59bVa50K-5OiU--Nzr-26" edge="1">
          <mxGeometry relative="1" as="geometry" />
        </mxCell>
        <mxCell id="re59bVa50K-5OiU--Nzr-59" value="&lt;font style=&quot;font-size: 12px&quot;&gt;&amp;lt;&amp;lt;Resource&amp;gt;&amp;gt;&lt;br&gt;&lt;/font&gt;" style="text;html=1;strokeColor=none;fillColor=none;align=center;verticalAlign=middle;whiteSpace=wrap;rounded=0;fontSize=24;" parent="1" vertex="1">
          <mxGeometry x="907.5" y="375" width="65" height="10" as="geometry" />
        </mxCell>
        <mxCell id="re59bVa50K-5OiU--Nzr-60" value="" style="rounded=1;whiteSpace=wrap;html=1;fontSize=24;" parent="1" vertex="1">
          <mxGeometry x="392" y="650" width="120" height="60" as="geometry" />
        </mxCell>
        <mxCell id="re59bVa50K-5OiU--Nzr-61" value="" style="endArrow=none;html=1;rounded=0;fontSize=24;exitX=0;exitY=0.5;exitDx=0;exitDy=0;entryX=1;entryY=0.5;entryDx=0;entryDy=0;" parent="1" source="re59bVa50K-5OiU--Nzr-60" target="re59bVa50K-5OiU--Nzr-60" edge="1">
          <mxGeometry width="50" height="50" relative="1" as="geometry">
            <mxPoint x="427" y="690" as="sourcePoint" />
            <mxPoint x="477" y="640" as="targetPoint" />
          </mxGeometry>
        </mxCell>
        <mxCell id="re59bVa50K-5OiU--Nzr-62" value="Authorisation" style="text;html=1;strokeColor=none;fillColor=none;align=center;verticalAlign=middle;whiteSpace=wrap;rounded=0;fontSize=12;" parent="1" vertex="1">
          <mxGeometry x="412" y="666" width="80" height="10" as="geometry" />
        </mxCell>
        <mxCell id="re59bVa50K-5OiU--Nzr-63" value="&lt;font style=&quot;font-size: 12px&quot;&gt;&amp;lt;&amp;lt;Resource&amp;gt;&amp;gt;&lt;br&gt;&lt;/font&gt;" style="text;html=1;strokeColor=none;fillColor=none;align=center;verticalAlign=middle;whiteSpace=wrap;rounded=0;fontSize=24;" parent="1" vertex="1">
          <mxGeometry x="419.5" y="650" width="65" height="10" as="geometry" />
        </mxCell>
        <mxCell id="re59bVa50K-5OiU--Nzr-110" value="Name" style="text;html=1;strokeColor=none;fillColor=none;align=center;verticalAlign=middle;whiteSpace=wrap;rounded=0;fontSize=12;" parent="1" vertex="1">
          <mxGeometry x="250" y="126" width="60" height="30" as="geometry" />
        </mxCell>
        <mxCell id="re59bVa50K-5OiU--Nzr-112" value="Party&lt;br&gt;(Buyer)" style="text;html=1;strokeColor=none;fillColor=none;align=center;verticalAlign=middle;whiteSpace=wrap;rounded=0;fontSize=12;" parent="1" vertex="1">
          <mxGeometry x="415" y="96" width="60" height="30" as="geometry" />
        </mxCell>
        <mxCell id="re59bVa50K-5OiU--Nzr-113" value="Party&lt;br&gt;(Seller)" style="text;html=1;strokeColor=none;fillColor=none;align=center;verticalAlign=middle;whiteSpace=wrap;rounded=0;fontSize=12;" parent="1" vertex="1">
          <mxGeometry x="686.5" y="96" width="60" height="30" as="geometry" />
        </mxCell>
        <mxCell id="re59bVa50K-5OiU--Nzr-114" value="Company" style="text;html=1;strokeColor=none;fillColor=none;align=center;verticalAlign=middle;whiteSpace=wrap;rounded=0;fontSize=12;" parent="1" vertex="1">
          <mxGeometry x="800" y="126" width="60" height="30" as="geometry" />
        </mxCell>
        <mxCell id="re59bVa50K-5OiU--Nzr-115" value="Date" style="text;html=1;strokeColor=none;fillColor=none;align=center;verticalAlign=middle;whiteSpace=wrap;rounded=0;fontSize=12;" parent="1" vertex="1">
          <mxGeometry x="380" y="326" width="60" height="30" as="geometry" />
        </mxCell>
        <mxCell id="re59bVa50K-5OiU--Nzr-116" value="Date" style="text;html=1;strokeColor=none;fillColor=none;align=center;verticalAlign=middle;whiteSpace=wrap;rounded=0;fontSize=12;" parent="1" vertex="1">
          <mxGeometry x="645" y="326" width="60" height="30" as="geometry" />
        </mxCell>
        <mxCell id="re59bVa50K-5OiU--Nzr-117" value="Currency" style="text;html=1;strokeColor=none;fillColor=none;align=center;verticalAlign=middle;whiteSpace=wrap;rounded=0;fontSize=12;" parent="1" vertex="1">
          <mxGeometry x="880" y="401" width="60" height="30" as="geometry" />
        </mxCell>
        <mxCell id="re59bVa50K-5OiU--Nzr-119" value="In Game Store" style="text;html=1;strokeColor=none;fillColor=none;align=center;verticalAlign=middle;whiteSpace=wrap;rounded=0;fontSize=12;" parent="1" vertex="1">
          <mxGeometry x="399" y="676" width="81" height="30" as="geometry" />
        </mxCell>
        <mxCell id="re59bVa50K-5OiU--Nzr-123" value="clause" style="text;html=1;strokeColor=none;fillColor=none;align=center;verticalAlign=middle;whiteSpace=wrap;rounded=0;fontSize=12;" parent="1" vertex="1">
          <mxGeometry x="452" y="260" width="60" height="30" as="geometry" />
        </mxCell>
        <mxCell id="re59bVa50K-5OiU--Nzr-124" value="clause" style="text;html=1;strokeColor=none;fillColor=none;align=center;verticalAlign=middle;whiteSpace=wrap;rounded=0;fontSize=12;" parent="1" vertex="1">
          <mxGeometry x="653.5" y="260" width="60" height="30" as="geometry" />
        </mxCell>
        <mxCell id="re59bVa50K-5OiU--Nzr-125" value="fulfillment" style="text;html=1;strokeColor=none;fillColor=none;align=center;verticalAlign=middle;whiteSpace=wrap;rounded=0;fontSize=12;" parent="1" vertex="1">
          <mxGeometry x="653.5" y="399" width="60" height="30" as="geometry" />
        </mxCell>
        <mxCell id="re59bVa50K-5OiU--Nzr-126" value="fulfillment" style="text;html=1;strokeColor=none;fillColor=none;align=center;verticalAlign=middle;whiteSpace=wrap;rounded=0;fontSize=12;" parent="1" vertex="1">
          <mxGeometry x="454" y="399" width="60" height="30" as="geometry" />
        </mxCell>
        <mxCell id="re59bVa50K-5OiU--Nzr-127" value="reservation" style="text;html=1;strokeColor=none;fillColor=none;align=center;verticalAlign=middle;whiteSpace=wrap;rounded=0;fontSize=12;" parent="1" vertex="1">
          <mxGeometry x="827.5" y="300" width="60" height="30" as="geometry" />
        </mxCell>
        <mxCell id="re59bVa50K-5OiU--Nzr-128" value="take" style="text;html=1;strokeColor=none;fillColor=none;align=center;verticalAlign=middle;whiteSpace=wrap;rounded=0;fontSize=12;" parent="1" vertex="1">
          <mxGeometry x="810" y="460" width="60" height="30" as="geometry" />
        </mxCell>
        <mxCell id="re59bVa50K-5OiU--Nzr-132" value="give" style="text;html=1;strokeColor=none;fillColor=none;align=center;verticalAlign=middle;whiteSpace=wrap;rounded=0;fontSize=12;" parent="1" vertex="1">
          <mxGeometry x="452" y="550" width="60" height="30" as="geometry" />
        </mxCell>
      </root>
    </mxGraphModel>
  </diagram>
</mxfile>
